<?xml version="1.0" encoding="iso-8859-1"?>
<!-- Generator: Adobe Illustrator 21.0.0, SVG Export Plug-In . SVG Version: 6.00 Build 0)  -->
<svg xmlns="http://www.w3.org/2000/svg" xmlns:xlink="http://www.w3.org/1999/xlink" version="1.1" id="Capa_1" x="0px" y="0px" viewBox="0 0 511.292 511.292" style="enable-background:new 0 0 511.292 511.292;" xml:space="preserve" width="512" height="512">
<g>
	<path style="fill:#FFBB64;" d="M448.255,177.907c46.004-7.216,46.004-55.926,46.004-64.044c0-8.118-26.159-38.787-32.473-47.808   c-6.314-9.02-41.52-12.519-41.52-12.519V7.498c0,0-46.039,8.287-58.929,51.563c0,0-32.227,11.049-42.355,53.404   c-10.129,42.356-7.366,119.7-121.541,167.58c-66.166,27.747-85.637,98.476-74.902,153.051c-1.914-0.724-3.84-1.495-5.772-2.324   c-37.229-15.982-59.274-44.546-65.523-84.899c-7.401-47.798,3.816-84.722,33.341-109.746c22.741-19.273,48.532-24.491,48.73-24.529   c8.771-1.646,14.548-10.091,12.902-18.863c-1.646-8.771-10.09-14.538-18.863-12.902c-1.345,0.252-33.279,6.461-62.463,30.633   C37.67,233.011,8.407,275.551,19.304,350.818c11.426,78.921,72.387,132.067,129.505,136.176   c10.513,10.512,23.536,16.797,38.502,16.797h168.501c0,0,2.762-41.434-42.355-41.434h-59.013   c20.372-0.451,90.319-6.238,90.319-64.454c0-12.743-1.965-23.649-5.16-32.962l43.715,123.576   c3.238,9.155,11.895,15.274,21.605,15.274h55.961c0-31.32-39.689-39.941-39.689-39.941v-92.007   c47.808-58.632,23.453-116.362,16.237-128.991C430.215,230.225,402.252,185.123,448.255,177.907z M339.471,364.569L339.471,364.569   l0,0.002C339.472,364.57,339.472,364.57,339.471,364.569z"/>
	<g>
		<path style="fill:#FFAD47;" d="M313.457,462.357h-27c45.117,0,42.355,41.434,42.355,41.434h27    C355.812,503.792,358.574,462.357,313.457,462.357z"/>
		<path style="fill:#FFAD47;" d="M421.194,463.851v-92.007c47.808-58.632,23.453-116.362,16.237-128.991    c-7.216-12.628-35.179-57.73,10.824-64.946c8.064-1.265,14.71-3.808,20.195-7.181c-13.319,3.773-28.914,6.325-47.195,7.181    c-46.515,2.178-18.041,52.318-10.824,64.946c7.216,12.629,31.571,70.359-16.237,128.991v90.766    c0,7.275,5.342,13.532,12.558,14.457c11.628,1.491,27.132,7.15,27.132,26.725h27C460.884,472.472,421.194,463.851,421.194,463.851    z"/>
	</g>
	<path style="fill:#FF3D43;" d="M429.828,228.846c-4.666-9.68-8.957-21.792-6.877-31.883l0,0   c-80.444-1.785-111.684-44.829-111.685-44.83c-2.555,11.637-6.024,24.04-11.548,36.643l0.001,0.001   C349.654,226.464,400.548,230.544,429.828,228.846z"/>
	<path style="fill:#D72E2E;" d="M422.951,196.963c-9.787-0.217-18.84-1.049-27.203-2.336c-2.146,10.31,2.359,23.478,7.161,33.867   c10.172,0.836,19.285,0.795,26.919,0.352C425.162,219.167,420.871,207.055,422.951,196.963z"/>
	<g>
		<path d="M441.926,84.441c-6.009,0-10.897,4.889-10.897,10.897c0,6.01,4.889,10.898,10.897,10.898    c6.009,0,10.898-4.889,10.898-10.898C452.824,89.329,447.935,84.441,441.926,84.441z"/>
		<path d="M444.953,465.679c-6.017-3.682-12.018-6.061-16.259-7.47v-19.033c0-4.143-3.358-7.5-7.5-7.5c-4.143,0-7.5,3.357-7.5,7.5    v24.675c0,3.516,2.459,6.563,5.892,7.325c0.09,0.021,9.12,2.065,17.852,7.491c7.845,4.874,12.822,10.781,14.872,17.625h-47.387    c-6.519,0-12.36-4.13-14.535-10.275l-43.715-123.576c-1.376-3.893-5.641-5.939-9.538-4.582c-3.897,1.358-5.966,5.611-4.627,9.517    c3.155,9.197,4.755,19.469,4.755,30.528c0,21.898-10.805,37.278-33.031,47.02c-19.151,8.394-41.314,9.745-49.954,9.936    c-4.108,0.091-7.379,3.472-7.334,7.581c0.046,4.109,3.391,7.417,7.5,7.417h59.013c11.738,0,20.653,3.137,26.496,9.323    c5.027,5.323,7.058,12.099,7.867,17.111H187.312c-12.34,0-23.51-4.913-33.2-14.602c-1.274-1.274-2.966-2.048-4.765-2.177    c-48.806-3.512-108.036-48.143-121.674-123.941c-0.734-4.076-4.631-6.783-8.71-6.054c-4.077,0.734-6.787,4.634-6.054,8.71    c6.722,37.356,24.245,70.538,50.676,95.958c24.021,23.103,53.017,37.255,81.939,40.057c12.033,11.165,26.425,17.049,41.787,17.049    h168.5c3.948,0,7.221-3.062,7.483-7.001c0.057-0.843,1.221-20.811-12.306-35.27c-7.995-8.546-19.16-13.261-33.232-14.046    c16.71-9.18,27.561-22.263,32.092-38.58l26.398,74.624c4.291,12.126,15.814,20.272,28.676,20.272h55.961    c4.143,0,7.5-3.358,7.5-7.5C468.384,488.236,460.282,475.057,444.953,465.679z"/>
		<path d="M24.6,326.742c-2.175-58.672,23.311-92.475,45.073-110.5c27.722-22.962,57.793-28.8,59.054-29.036    c4.711-0.883,9.236,2.225,10.117,6.911c0.88,4.693-2.222,9.229-6.988,10.123c-1.132,0.225-28.003,5.726-52.122,26.165    c-31.651,26.828-43.73,66.063-35.903,116.615c6.67,43.078,30.214,73.575,69.977,90.644c4.273,1.834,9.371,4.711,13.572,1.16    c2.079-1.758,3.043-4.504,2.518-7.175c-14.375-73.086,26.439-126.234,70.443-144.689c17.86-7.489,33.885-16.124,47.628-25.664    c3.403-2.361,4.247-7.035,1.885-10.438c-2.362-3.402-7.035-4.247-10.438-1.885c-12.884,8.942-27.982,17.068-44.876,24.154    c-64.987,27.252-87.115,92.937-81.414,147.692c-30.712-15.35-49.024-40.917-54.471-76.096    c-6.976-45.043,3.38-79.655,30.777-102.877c20.969-17.77,45.12-22.85,45.265-22.88c12.821-2.406,21.295-14.796,18.89-27.618    c-2.403-12.808-14.791-21.278-27.615-18.89c-1.423,0.267-35.188,6.819-65.866,32.229C35.744,224.868,7.209,262.519,9.61,327.297    c0.154,4.14,3.672,7.341,7.773,7.218C21.522,334.362,24.753,330.881,24.6,326.742z"/>
		<path d="M501.759,113.863c-0.043-0.517-0.042-1.041-0.114-1.555c-0.299-2.318-1.254-4.924-3.013-8.226    c-0.047-0.088-0.102-0.17-0.152-0.255c-3.89-7.255-29.056-39.939-30.551-42.073c-6.271-8.958-26.833-13.104-40.164-14.893V7.497    c0-4.601-4.298-8.195-8.829-7.382c-2.014,0.363-48.37,9.195-63.688,53.385c-9.488,4.473-34.559,19.569-43.561,57.221    c-1.422,5.945-2.585,12.474-3.815,19.387c-5.325,29.91-11.953,67.134-46.182,100.587c-2.962,2.895-3.017,7.644-0.121,10.605    c2.892,2.961,7.642,3.017,10.605,0.121c13.712-13.401,23.399-27.427,30.453-41.312c44.197,30.503,88.549,36.539,116.658,36.539    c2.104,0,4.113-0.035,6.029-0.095c1.753,3.338,3.428,6.245,4.741,8.519l0.864,1.502c1.392,2.436,33.53,60.355-15.537,120.531    c-1.092,1.338-1.688,3.013-1.688,4.739v37.332c0,4.143,3.357,7.5,7.5,7.5c4.142,0,7.5-3.357,7.5-7.5v-34.697    c20.395-25.87,30.064-54.357,28.745-84.707c-1.21-27.836-11.455-47.067-13.497-50.64l-0.897-1.56    c-4.348-7.532-15.246-26.418-12.8-38.872c0.013-0.054,0.025-0.108,0.037-0.162c0.241-1.165,0.591-2.277,1.086-3.312    c2.427-5.078,8.5-8.413,18.05-9.911c21.836-3.425,37.755-15.963,46.035-36.26C498.78,140.9,502.354,121.093,501.759,113.863z     M308.891,186.198c2.56-6.461,4.643-12.835,6.373-19.038c14.639,13.111,46.045,33.996,99.705,36.995    c0.244,5.882,1.712,11.865,3.707,17.492C392.141,221.565,350.327,215.646,308.891,186.198z M447.093,170.497    c-14.729,2.311-24.572,8.454-29.259,18.262c-0.08,0.167-0.144,0.338-0.22,0.506c-36.411-1.748-61.32-12.434-76.02-21.332    c-11.783-7.133-18.991-14.229-22.234-17.814c1.267-6.094,2.307-11.922,3.279-17.382c1.191-6.689,2.316-13.009,3.636-18.527    c8.972-37.52,36.37-47.654,37.493-48.054c2.292-0.786,4.064-2.631,4.755-4.954c8.216-27.582,31.381-39.325,44.242-43.837v36.172    c0,3.853,2.922,7.08,6.757,7.463c16.342,1.632,33.564,6.1,36.118,9.356c1.723,2.461,4.564,6.094,8.163,10.694    c4.548,5.814,13.315,17.024,18.625,25.09c-1.473,2.252-2.318,4.918-2.318,7.723c0,4.798,2.34,9.012,5.964,11.565    C483.85,143.737,475.232,166.084,447.093,170.497z"/>
	</g>
</g>















</svg>
