<svg height="496pt" viewBox="0 -48 496.41445 496" width="496pt" xmlns="http://www.w3.org/2000/svg"><path d="m184 56.214844c-2.859375.039062-5.695312.464844-8.441406 1.269531-3.09375-25.78125-23.523438-46.042969-49.332032-48.929687-25.804687-2.882813-50.203124 12.371093-58.914062 36.835937-5.886719-3.351563-12.539062-5.136719-19.3125-5.175781-22.089844 0-40 17.90625-40 40 0 22.089844 17.910156 40 40 40h136c17.671875 0 32-14.328125 32-32 0-17.675782-14.328125-32-32-32zm0 0" fill="#e6e7e8"/><path d="m456 176.214844c-2.859375.039062-5.695312.464844-8.441406 1.269531-3.09375-25.78125-23.523438-46.042969-49.332032-48.929687-25.804687-2.882813-50.203124 12.371093-58.914062 36.835937-5.886719-3.351563-12.539062-5.136719-19.3125-5.175781-22.089844 0-40 17.90625-40 40 0 22.089844 17.910156 40 40 40h136c17.671875 0 32-14.328125 32-32 0-17.675782-14.328125-32-32-32zm0 0" fill="#e6e7e8"/><path d="m348.480469 139.734375-36.480469 36.480469-32-32-32 32-32-32-32 32-36.480469-36.480469 74.082031-108.722656c5.941407-8.742188 15.828126-13.976563 26.398438-13.976563s20.457031 5.234375 26.398438 13.976563zm0 0" fill="#e6e7e8"/><path d="m488 344.214844v48h-480v-48l139.519531-204.480469 36.480469 36.480469 32-32 32 32 32-32 32 32 36.480469-36.480469zm0 0" fill="#91cc04"/><g fill="#231f20"><path d="m72 80.214844h-32c-4.417969 0-8 3.578125-8 8 0 4.417968 3.582031 8 8 8h32c4.417969 0 8-3.582032 8-8 0-4.421875-3.582031-8-8-8zm0 0"/><path d="m104 80.214844h-8c-4.417969 0-8 3.578125-8 8 0 4.417968 3.582031 8 8 8h8c4.417969 0 8-3.582032 8-8 0-4.421875-3.582031-8-8-8zm0 0"/><path d="m432.238281 248.214844h23.761719c14.636719.148437 28.1875-7.707032 35.328125-20.484375 7.144531-12.777344 6.738281-28.433594-1.0625-40.820313-7.796875-12.390625-21.734375-19.53125-36.34375-18.617187-5.234375-20.699219-20.492187-37.398438-40.636719-44.480469-20.140625-7.078125-42.492187-3.59375-59.523437 9.28125l-72.722657-106.640625c-7.453124-10.921875-19.816406-17.453125-33.039062-17.453125s-25.585938 6.53125-33.039062 17.453125l-16.640626 24.398437c-5.207031-2.066406-10.8125-2.941406-16.398437-2.558593-6.578125-25.703125-28.34375-44.671875-54.703125-47.675781-26.359375-3-51.832031 10.589843-64.019531 34.15625-4.890625-1.683594-10.027344-2.550782-15.199219-2.558594-26.507812 0-48 21.488281-48 48 0 26.507812 21.492188 48 48 48h97.601562l-144.242187 211.519531c-.890625 1.324219-1.36328125 2.882813-1.359375 4.480469v48c0 4.417968 3.582031 8 8 8h480c4.417969 0 8-3.582032 8-8v-48c.003906-1.597656-.46875-3.15625-1.359375-4.480469zm-40.238281-112c24.261719.023437 44.6875 18.152344 47.601562 42.238281.308594 2.308594 1.589844 4.375 3.519532 5.679687 1.925781 1.292969 4.324218 1.671876 6.558594 1.039063 2.058593-.589844 4.179687-.914063 6.320312-.957031 13.253906 0 24 10.742187 24 24 0 13.253906-10.746094 24-24 24h-34.640625l-58.640625-85.921875c8.367188-6.523438 18.671875-10.070313 29.28125-10.078125zm-344-24c-13.460938.140625-25.570312-8.160156-30.296875-20.765625s-1.058594-26.820313 9.175781-35.5625c10.234375-8.746094 24.847656-10.148438 36.5625-3.511719 2.054688 1.148438 4.519532 1.328125 6.71875.476562 2.203125-.828124 3.929688-2.582031 4.71875-4.796874 7.46875-20.957032 28.375-34.015626 50.480469-31.535157s39.601563 19.847657 42.242187 41.933594c.308594 2.308594 1.589844 4.375 3.519532 5.679687 1.925781 1.292969 4.324218 1.671876 6.558594 1.039063 3.636718-1.089844 7.484374-1.253906 11.199218-.480469l-32.398437 47.523438zm180.160156-76.722656c4.46875-6.566407 11.898438-10.496094 19.839844-10.496094s15.371094 3.929687 19.839844 10.496094l70.351562 103.199218-26.191406 26.210938-26.34375-26.34375c-3.125-3.125-8.1875-3.125-11.3125 0l-26.34375 26.34375-26.34375-26.34375c-3.125-3.125-8.1875-3.125-11.3125 0l-26.34375 26.34375-26.191406-26.191406zm251.839844 348.722656h-464v-37.523438l132.632812-194.535156 29.710938 29.710938c3.125 3.125 8.1875 3.125 11.3125 0l26.34375-26.34375 26.34375 26.34375c3.125 3.125 8.1875 3.125 11.3125 0l26.34375-26.34375 26.34375 26.34375c3.125 3.125 8.1875 3.125 11.3125 0l29.710938-29.710938 54.554687 80.058594 10.957031 16 67.121094 98.476562zm0 0"/><path d="m304 360.214844c0 4.417968 3.582031 8 8 8h112c4.417969 0 8-3.582032 8-8 0-4.421875-3.582031-8-8-8h-112c-4.417969 0-8 3.578125-8 8zm0 0"/><path d="m448 368.214844h8c4.417969 0 8-3.582032 8-8 0-4.421875-3.582031-8-8-8h-8c-4.417969 0-8 3.578125-8 8 0 4.417968 3.582031 8 8 8zm0 0"/></g></svg>