<svg id="Layer_1" enable-background="new 0 0 128 128" height="512" viewBox="0 0 128 128" width="512" xmlns="http://www.w3.org/2000/svg"><path d="m98.913 108.046c-2.387-1.979-6.628-4.391-10.769-6.535 4.698-14.511-2.51-30.132-8.326-39.512 1.489-.712 2.751-1.715 3.748-3.042.256-.34.484-.702.7-1.075h5.166c.528 0 .955-.428.955-.955s-.427-.955-.955-.955h-4.277c.276-.734.506-1.499.677-2.303h3.6c.528 0 .955-.428.955-.955s-.427-.955-.955-.955h-3.294c.086-.75.129-1.52.147-2.302h3.147c.528 0 .955-.428.955-.955 0-.528-.427-.955-.955-.955h-3.164c-.195-4.774-1.437-9.849-2.993-13.981-.721-1.917-1.554-3.691-2.48-5.289 2.831-1.615 5.127-4.472 6.389-7.991 1.523-4.248 1.318-8.876-.561-12.698-.121-.246-.342-.429-.607-.501-9.256-2.51-18.437 9.149-20.213 11.557h-12.37c-1.433-2.327-7.946-11.881-17.877-11.507-.251.01-.489.118-.661.301-1.962 2.093-2.909 5.373-2.597 9 .388 4.532 2.619 8.753 6.159 11.71-.993 1.674-1.851 3.494-2.554 5.424-.636 1.744-2.676 7.769-2.982 13.971h-4.041c-.528 0-.955.428-.955.955 0 .528.427.955.955.955h4.005c.01.775.057 1.544.138 2.302h-4.143c-.528 0-.955.428-.955.955s.427.955.955.955h4.438c.163.792.372 1.565.644 2.303h-5.082c-.528 0-.955.428-.955.955s.427.955.955.955h5.976c.246.429.511.846.813 1.239.821 1.072 1.824 1.921 2.978 2.579-1.644 2.78-3.199 5.76-4.496 9.032-.194.491.046 1.046.536 1.24.085.034.172.038.259.047-.255.669-.502 1.345-.736 2.032-.069-.043-.133-.091-.214-.116-.509-.154-1.039.13-1.194.633-.842 2.745-1.423 5.522-1.723 8.255-.057.513.308.971.814 1.044-.101.808-.17 1.622-.221 2.438-.008 0-.014-.005-.021-.005-.495-.021-.971.39-.991.918-.238 6.216 1.062 11.944 3.841 16.991-.085.642-.132 1.259-.142 1.877-.026 1.636.512 3.167 1.453 4.352-1.3 1.879-2.537 4.354-2.037 6.51.244 1.051.905 1.388 1.277 1.495.164.048.334.07.51.07 1.491 0 3.396-1.673 5.948-4.187 1.758.756 3.752.553 5.273-.522.873-.617 1.855-1.513 2.713-2.762.01-.014.027-.021.043-.017 0 0 9.418.957 12.557.957 2.793 0 10.034-.608 12.855-.855.167.122.333.245.506.358.605.393 1.238.687 1.881.878.092.087.182.177.274.259.242.261.488.529.719.781 2.005 2.19 3.604 3.854 4.949 4.634-2.505-.382-5.25-.968-8.226-1.765-13.198-3.536-22.803-3.706-28.04-.544-1.247.752-2.224 1.666-2.902 2.716-.488.753-.577 1.7-.236 2.535.343.842 1.077 1.465 1.965 1.667 1.12.252 2.309-.226 2.928-1.176.126-.193.438-.577 1.116-.985 1.098-.662 3.281-1.452 7.447-1.452 4.351 0 9.83.876 16.286 2.605 6.192 1.658 11.529 2.499 15.865 2.499h.003c8.621 0 11.636-3.34 12.666-5.332 1.772-3.432.501-7.653-3.239-10.755zm-12.387 9.028c.376-1.32.066-2.803-.513-4.203.972-1.034 1.528-2.431 1.441-3.918-.033-.571-.104-1.109-.192-1.629 3.273 1.741 6.358 3.55 8.104 4.997 1.623 1.346 2.367 2.925 1.848 3.928-.577 1.118-2.906 2.312-7.709 2.312-1.212 0-2.528-.083-3.922-.232.346-.179.738-.536.943-1.255z" fill="#e6e7e8"/><path d="m94.482 104.96c-2.3-1.906-6.417-4.251-10.472-6.354-.321.892-.681 1.779-1.098 2.66-.004.009-.005.019-.002.028.102.317.195.653.282.999 3.577 1.879 7.043 3.882 8.963 5.473 2.01 1.666 2.829 3.668 2.088 5.102-.929 1.798-4.047 2.829-8.557 2.829-3.986 0-8.932-.783-14.7-2.327-6.86-1.838-12.745-2.77-17.492-2.77-4.176 0-7.476.713-9.807 2.121-1.122.677-1.994 1.49-2.595 2.417-.318.491-.375 1.11-.153 1.655.226.554.708.963 1.291 1.096.134.03.271.046.407.046.616 0 1.18-.305 1.51-.813.208-.319.624-.8 1.422-1.281 1.202-.725 3.556-1.589 7.941-1.589 4.435 0 9.998.887 16.533 2.637 6.11 1.636 11.364 2.466 15.618 2.466h.004c8.115 0 10.887-3.017 11.817-4.815 1.558-3.016.38-6.776-3-9.58z" fill="#d4fbff"/><path d="m34.904 107.621c-.092-.036-.187-.064-.278-.106-.529-.242-.994-.573-1.4-.963-1.328 1.776-2.813 4.32-2.341 6.357.51 2.203 3.441-.434 5.931-2.883-.864-.594-1.51-1.442-1.912-2.405z" fill="#0089ef"/><path d="m78.325 110.779c-.547.016-1.086-.069-1.606-.225 2.188 2.298 4.518 4.361 5.067 2.437.283-.99.072-2.137-.358-3.265-.864.629-1.93 1.019-3.103 1.053z" fill="#0089ef"/><path d="m74.552 57.744c-1.698.595-3.752.853-6.244.658-4.649-.363-11.671 4.824-12.973 4.824-.898 0-7.418-5.23-12.104-4.824-2.869.249-5.158-.099-6.983-.883-6.247 10.81-12.903 27.864-4.584 42.672.004.008.006.016.005.025-.097.648-.163 1.334-.174 2.062-.036 2.2 1.132 4.32 3.132 5.237 1.788.82 3.84.625 5.397-.475.873-.617 1.855-1.513 2.713-2.762.009-.014.027-.021.043-.017 0 0 9.418.957 12.557.957 3.502 0 14.009-.958 14.009-.958.016-.003.032.003.042.016.886 1.168 1.875 2 2.773 2.583.962.626 2.079 1.013 3.226.98 3.121-.09 5.481-2.695 5.309-5.646-.084-1.445-.367-2.731-.724-3.839-.003-.009-.002-.019.002-.028 6.747-14.252.525-30.216-5.422-40.582z" fill="#fff"/><path d="m82.91 101.293c-.003-.009-.002-.019.002-.028 7.52-15.878-1.061-33.884-7.426-43.901-1.858.864-4.209 1.27-7.179 1.038-4.649-.363-11.671 4.824-12.973 4.824-.898 0-7.418-5.23-12.104-4.824-1.02.089-1.964.098-2.844.044-6.525 10.611-14.638 28.923-5.783 44.685.004.008.006.016.005.025-.097.648-.163 1.334-.174 2.062-.036 2.2 1.132 4.32 3.132 5.237 1.787.82 3.84.625 5.396-.475.873-.617 1.855-1.513 2.713-2.762.01-.014.027-.021.043-.017 0 0 9.418.957 12.557.957 3.502 0 14.009-.958 14.009-.958.016-.003.032.003.042.016.886 1.168 1.875 2 2.773 2.583.962.626 2.078 1.013 3.226.98 3.121-.09 5.481-2.695 5.309-5.646-.084-1.446-.367-2.731-.724-3.84z" fill="#6dc9f7"/><path d="m68.723 79.985c-2.19 1.189-4.922.641-6.571-1.236-.868-.988-1.349-2.264-1.349-3.566 0-.174.007-.347.027-.521.247-2.518 1.532-6.313 6.378-9.271-.041-.073-.077-.152-.118-.225-1.26-2.201-2.83-4.035-4.611-5.386-3.297 1.43-6.331 3.445-7.142 3.445-.585 0-3.564-2.219-6.864-3.654-1.891 1.361-3.553 3.26-4.876 5.561-.058.1-.108.208-.164.309 4.777 2.95 6.049 6.717 6.294 9.22.02.174.027.347.027.521 0 1.302-.481 2.578-1.349 3.566-1.649 1.877-4.381 2.424-6.571 1.236-.581-.313-1.101-.656-1.593-1.008.171 11.551 6.856 20.841 15.096 20.841 7.987 0 14.531-8.742 15.066-19.814.02-.367.025-.74.03-1.112-.526.384-1.084.756-1.71 1.094z" fill="#d4fbff"/><path d="m81.944 4.186c-9.569-2.596-19.474 11.59-19.474 11.59h-13.401s-6.685-11.908-17.297-11.506c-4.005 4.272-3.224 14.29 4.122 19.835-1.202 1.895-2.174 3.945-2.914 5.973-3.746 10.276-6.921 29.814 10.251 28.324 4.686-.407 11.206 4.824 12.104 4.824 1.302 0 8.324-5.187 12.973-4.824 17.096 1.336 14.101-18.098 10.251-28.324-.777-2.064-1.747-4.122-2.933-6.009 6.426-2.914 9.984-12.424 6.318-19.883z" fill="#6dc9f7"/><path d="m70.761 18.495c1.27.845 2.651 1.923 3.178 2.899 0 0 5.375-3.645 4.901-9.002-.102-1.148-1.114-2.028-2.265-1.957-1.586.098-3.97.833-6.4 3.748-1.112 1.337-.862 3.348.586 4.312z" fill="#d4fbff"/><path d="m41.105 18.495c-1.27.845-2.651 1.923-3.178 2.899 0 0-5.375-3.645-4.901-9.002.102-1.148 1.114-2.028 2.265-1.957 1.586.098 3.97.833 6.4 3.748 1.113 1.337.862 3.348-.586 4.312z" fill="#d4fbff"/><path d="m50.389 75.949-.872.728c-.22.756-.585 1.471-1.114 2.073-.27.307-.576.564-.897.798 1.079.742 3.062 1.936 4.346 1.694 1.839-.346-1.463-5.293-1.463-5.293z" fill="#0089ef"/><path d="m62.274 78.75c-.534-.608-.901-1.331-1.12-2.096l-.805-.716s-3.458 4.839-1.633 5.244c1.312.291 3.408-.911 4.486-1.611-.332-.24-.65-.504-.928-.821z" fill="#0089ef"/><g fill="#3a2c60"><path d="m95.119 104.19c-2.387-1.979-6.637-4.395-10.785-6.543-.205.637-.429 1.273-.681 1.906 3.976 2.065 7.982 4.347 10.19 6.177 3.005 2.492 4.084 5.77 2.75 8.351-.825 1.597-3.342 4.274-10.929 4.274h-.003c-4.165 0-9.332-.818-15.359-2.432-6.621-1.772-12.271-2.671-16.792-2.671-4.617 0-7.147.942-8.457 1.733-.961.579-1.478 1.185-1.744 1.593-.18.275-.544.407-.856.336-.265-.06-.484-.247-.586-.498-.1-.243-.075-.518.064-.734.519-.799 1.282-1.507 2.272-2.104 4.712-2.843 13.946-2.61 26.524.759 5.853 1.567 10.885 2.362 14.958 2.362 4.969 0 8.323-1.197 9.446-3.37.966-1.869.048-4.354-2.338-6.332-2.106-1.746-5.944-3.935-9.791-5.935-.032.068-.058.137-.09.205-.004.009-.005.019-.002.028.221.687.406 1.449.541 2.267 3.261 1.735 6.331 3.537 8.066 4.975 1.607 1.333 2.346 2.889 1.837 3.874-.571 1.106-2.886 2.288-7.669 2.288-1.17 0-2.438-.078-3.778-.217.319-.204.655-.567.84-1.215.381-1.336.065-2.836-.522-4.25-.467.506-1.034.924-1.672 1.228.326.9.472 1.768.27 2.473-.001.005-.003.01-.004.014-.53-.143-1.499-.991-2.474-1.953-.008 0-.015.002-.022.002-1.147.033-2.264-.354-3.226-.98-.491-.32-1.009-.722-1.524-1.205.609.173 1.226.26 1.837.244 1.786-.051 3.429-.797 4.624-2.101 1.166-1.272 1.754-2.907 1.655-4.603-.072-1.252-.295-2.507-.657-3.723 6.451-14.056.883-29.523-5.052-40.176 1.511-.717 2.788-1.73 3.798-3.074.251-.334.475-.691.689-1.057h5.142c.553 0 1-.448 1-1s-.447-1-1-1h-4.215c.262-.707.483-1.442.648-2.213h3.567c.553 0 1-.448 1-1s-.447-1-1-1h-3.246c.081-.722.124-1.462.142-2.213h3.105c.553 0 1-.448 1-1s-.447-1-1-1h-3.122c-.201-4.768-1.441-9.829-2.994-13.952-.717-1.905-1.543-3.668-2.46-5.256 2.822-1.624 5.111-4.479 6.37-7.993 1.525-4.259 1.32-8.9-.563-12.732-.127-.258-.358-.449-.636-.524-9.265-2.513-18.435 9.1-20.246 11.553h-12.322c-1.463-2.367-7.95-11.874-17.903-11.505-.263.01-.512.124-.691.315-1.971 2.103-2.922 5.396-2.609 9.036.389 4.53 2.614 8.752 6.146 11.715-.986 1.666-1.838 3.478-2.538 5.398-.635 1.741-2.67 7.748-2.984 13.942h-3.998c-.553 0-1 .448-1 1s.447 1 1 1h3.961c.011.744.056 1.484.132 2.213h-4.093c-.553 0-1 .448-1 1s.447 1 1 1h4.402c.158.76.358 1.502.617 2.213h-5.019c-.553 0-1 .448-1 1s.447 1 1 1h5.95c.243.423.505.833.802 1.221.817 1.066 1.813 1.911 2.958 2.568-1.636 2.77-3.186 5.736-4.48 8.999-.203.514.048 1.095.562 1.298.509.203 1.095-.047 1.298-.561 1.276-3.217 2.818-6.148 4.447-8.891 1.906.66 4.149.885 6.723.659 2.315-.193 5.244 1.198 7.576 2.512l1.416 1.416c1.775 1.775 4.652 1.775 6.427 0l1.201-1.201c2.579-1.358 5.869-2.925 8.291-2.726 2.2.173 4.143.003 5.853-.466 5.823 10.352 11.375 25.471 4.975 38.985-.1.225-.115.507-.04.741.38 1.18.607 2.389.678 3.591.066 1.151-.336 2.265-1.134 3.135-.826.902-1.965 1.418-3.207 1.454-.85.024-1.789-.258-2.651-.819-.969-.63-1.816-1.42-2.514-2.34-.21-.283-.581-.447-.937-.416v-.001c-.104.01-10.5.954-13.918.954-3.052 0-12.362-.942-12.455-.952h-.001c-.36-.036-.76.143-.968.446-.68.99-1.51 1.835-2.466 2.512-1.271.898-2.959 1.044-4.402.383-1.58-.724-2.58-2.417-2.549-4.312.01-.635.063-1.266.169-1.968.022-.208-.024-.443-.127-.625-2.712-4.827-3.972-10.288-3.743-16.232.021-.552-.409-1.017-.961-1.038-.502-.024-1.016.408-1.037.96-.239 6.219 1.06 11.951 3.839 17.002-.084.635-.13 1.249-.14 1.867-.027 1.635.508 3.166 1.444 4.356-1.299 1.883-2.528 4.355-2.028 6.518.249 1.074.927 1.418 1.308 1.528.169.049.343.072.521.072 1.512 0 3.429-1.685 5.996-4.215-.056-.023-.114-.039-.169-.064-.581-.266-1.082-.643-1.513-1.085-1.386 1.354-3.358 3.187-4.185 3.352-.004-.012-.007-.025-.01-.039-.312-1.348.538-3.14 1.573-4.691.247.161.505.308.776.432.865.396 1.791.591 2.71.591 1.304 0 2.596-.393 3.681-1.16.997-.705 1.878-1.56 2.624-2.546 2.076.206 9.361.907 12.111.907 3.104 0 11.416-.722 13.588-.916.774.933 1.677 1.737 2.689 2.396.619.402 1.265.697 1.921.888.312.332.642.693.945 1.024 1.918 2.095 3.466 3.706 4.781 4.53-2.447-.383-5.122-.961-8.014-1.735-13.207-3.538-22.824-3.708-28.075-.54-1.252.755-2.233 1.674-2.918 2.731-.494.765-.583 1.727-.238 2.575.348.855 1.094 1.488 1.997 1.694 1.137.256 2.346-.23 2.975-1.196.123-.189.43-.567 1.101-.971 1.093-.659 3.268-1.445 7.424-1.445 4.347 0 9.822.876 16.274 2.603 6.196 1.659 11.538 2.5 15.877 2.5h.003c8.646 0 11.672-3.355 12.706-5.356 1.782-3.447.507-7.69-3.251-10.806zm-26.733-46.785c-2.35-.188-5.149.87-7.607 2.053-.54-1.298-1.869-2.173-3.334-2.173h-3.843c-1.418 0-2.706.821-3.279 2.05-2.07-1.047-4.418-1.955-6.564-1.955-.207 0-.412.009-.615.026-4.483.387-7.771-.72-9.745-3.297-.001-.001-.002-.003-.003-.004h1.285c.553 0 1-.448 1-1s-.447-1-1-1h-2.433c-.3-.689-.534-1.432-.718-2.213h3.15c.553 0 1-.448 1-1s-.447-1-1-1h-3.506c-.083-.715-.121-1.458-.135-2.213h3.642c.553 0 1-.448 1-1s-.447-1-1-1h-3.609c.226-4.463 1.399-9.287 2.847-13.257.76-2.084 1.708-4.028 2.818-5.779.005-.007.005-.016.009-.023.007-.011.017-.019.023-.031.014-.026 1.456-2.62 4.143-5.182.399-.381.414-1.014.033-1.414s-1.013-.415-1.414-.034c-1.875 1.788-3.173 3.563-3.882 4.639-2.994-2.611-4.89-6.244-5.225-10.146-.244-2.852.429-5.501 1.809-7.19h.057c9.594 0 15.844 10.894 15.906 11.005.178.314.511.51.872.51h13.402c.327 0 .633-.16.82-.428.093-.134 9.292-13.14 17.952-11.304 1.462 3.267 1.568 7.16.279 10.757-1.127 3.144-3.173 5.653-5.668 7.019l-2.852-3.202c-.37-.413-1.001-.448-1.412-.082-.412.368-.449 1-.082 1.412l3.309 3.715c1.058 1.693 2.002 3.632 2.807 5.767 1.56 4.143 2.666 8.904 2.859 13.247h-4.494c-.553 0-1 .448-1 1s.447 1 1 1h4.512c-.019.757-.061 1.501-.148 2.213h-4.363c-.553 0-1 .448-1 1s.447 1 1 1h3.991c-.191.786-.433 1.528-.738 2.213h-3.253c-.553 0-1 .448-1 1s.447 1 1 1h2.066c-1.995 2.531-5.241 3.653-9.669 3.301z"/><path d="m28.209 80.104c.504 0 .937-.379.993-.891.287-2.609.842-5.265 1.648-7.895.162-.528-.135-1.087-.663-1.25-.527-.159-1.087.136-1.249.663-.844 2.75-1.424 5.53-1.725 8.263-.061.549.336 1.043.885 1.104.038.004.075.006.111.006z"/><path d="m47.703 36.788c-1.468 0-2.658 1.19-2.658 2.657 0 1.468 1.19 2.658 2.658 2.658s2.658-1.19 2.658-2.658c0-1.467-1.19-2.657-2.658-2.657z"/><path d="m64.028 36.788c-1.468 0-2.658 1.19-2.658 2.657 0 1.468 1.19 2.658 2.658 2.658s2.657-1.19 2.657-2.658c.001-1.467-1.189-2.657-2.657-2.657z"/><path d="m57.309 81.152c.201.522.624.879 1.191 1.005.203.045.416.065.636.065 1.235 0 2.66-.653 3.747-1.279.886.43 1.855.66 2.828.66 1.011 0 2.022-.24 2.939-.739.87-.468 1.688-1.011 2.433-1.612.43-.347.496-.977.148-1.406-.346-.429-.975-.497-1.406-.148-.647.523-1.361.997-2.125 1.408-1.746.948-3.992.52-5.344-1.017-.709-.807-1.1-1.839-1.1-2.906 0-.137.005-.273.021-.423.243-2.483 1.534-6.018 6.302-8.76.479-.275.645-.886.369-1.365-.275-.479-.889-.644-1.365-.368-5.507 3.167-7.007 7.348-7.295 10.284-.023.211-.032.422-.032.633 0 .171.033.338.046.507-1.076 1.558-2.536 4.045-1.993 5.461zm2.755-2.899c.224.408.478.801.791 1.156.068.077.143.145.214.218-.701.338-1.384.59-1.869.6.078-.42.407-1.157.864-1.974z"/><path d="m42.975 79.104c-.764-.411-1.478-.884-2.123-1.406-.431-.348-1.061-.28-1.406.148-.348.43-.281 1.059.148 1.406.742.6 1.56 1.143 2.429 1.611.92.499 1.933.74 2.943.74.977 0 1.95-.232 2.839-.666 1.082.659 2.481 1.334 3.703 1.334.182 0 .358-.015.529-.047.571-.107 1.006-.451 1.223-.967.601-1.427-.849-4.038-1.881-5.622.011-.152.041-.3.041-.453 0-.211-.009-.421-.031-.619-.289-2.951-1.789-7.133-7.296-10.298-.478-.277-1.09-.111-1.365.368s-.11 1.09.369 1.365c4.768 2.742 6.059 6.277 6.303 8.774.016.136.021.272.021.409 0 1.066-.391 2.099-1.1 2.906-1.351 1.539-3.6 1.966-5.346 1.017zm8.425 1.17c-.473-.025-1.128-.289-1.802-.636.074-.076.153-.147.224-.228.307-.349.558-.734.78-1.134.43.829.734 1.575.798 1.998z"/></g><ellipse cx="67.082" cy="45.784" fill="#ffd7e5" rx="1.887" ry="1.286"/><ellipse cx="44.27" cy="45.784" fill="#ffd7e5" rx="1.887" ry="1.286"/></svg>