<?xml version="1.0" encoding="iso-8859-1"?>
<!-- Generator: Adobe Illustrator 19.0.0, SVG Export Plug-In . SVG Version: 6.00 Build 0)  -->
<svg version="1.1" id="Capa_1" xmlns="http://www.w3.org/2000/svg" xmlns:xlink="http://www.w3.org/1999/xlink" x="0px" y="0px"
	 viewBox="0 0 480.8 480.8" style="enable-background:new 0 0 480.8 480.8;" xml:space="preserve">
<g>
	<path style="fill:#6CC3E1;" d="M400,32.4c-12.8,0-25.6-4.8-35.2-14.4C339.2-6,300-6,274.4,18c-8.8,9.6-21.6,14.4-34.4,14.4
		c-12.8,0-25.6-4.8-35.2-14.4C179.2-6,140-6,115.2,18c-9.6,9.6-22.4,14.4-35.2,14.4S54.4,27.6,44.8,18C32.8,6.8,16.8,0.4,0,0.4v16
		c12.8,0,25.6,4.8,35.2,14.4c12,11.2,28,17.6,44.8,17.6s32.8-6.4,44.8-17.6c19.2-19.2,50.4-19.2,70.4,0c12,11.2,28,17.6,44.8,17.6
		s32.8-6.4,44.8-17.6c19.2-19.2,50.4-19.2,70.4,0c12,11.2,28,17.6,44.8,17.6s32.8-6.4,44.8-17.6c9.6-9.6,22.4-14.4,35.2-14.4v-16
		c-16.8,0-32.8,6.4-44.8,17.6C425.6,27.6,412.8,32.4,400,32.4z"/>
	<path style="fill:#6CC3E1;" d="M400,200.4c-12.8,0-25.6-4.8-35.2-14.4c-25.6-24-64.8-24-90.4,0c-19.2,19.2-50.4,19.2-70.4,0
		c-25.6-24-64.8-24-89.6,0c-19.2,19.2-50.4,19.2-69.6,0c-12-11.2-28-17.6-44.8-17.6v16c12.8,0,25.6,4.8,35.2,14.4
		c25.6,24,64.8,24,89.6,0c19.2-19.2,50.4-19.2,70.4,0c25.6,24,64.8,24,89.6,0c19.2-19.2,50.4-19.2,70.4,0c25.6,24,64.8,24,90.4,0
		c9.6-9.6,21.6-14.4,35.2-14.4v-16c-16.8,0-32.8,6.4-44.8,17.6C425.6,195.6,412.8,200.4,400,200.4z"/>
	<path style="fill:#6CC3E1;" d="M400,112.4c-12.8,0-25.6-4.8-35.2-14.4c-25.6-24-64.8-24-90.4,0c-19.2,19.2-50.4,19.2-70.4,0
		c-25.6-24-64.8-24-89.6,0c-19.2,19.2-50.4,19.2-69.6,0c-12-11.2-28-17.6-44.8-17.6v16c12.8,0,25.6,4.8,35.2,14.4
		c25.6,24,64.8,24,89.6,0c19.2-19.2,50.4-19.2,70.4,0c25.6,24,64.8,24,89.6,0c19.2-19.2,50.4-19.2,70.4,0c25.6,24,64.8,24,90.4,0
		c9.6-9.6,21.6-14.4,35.2-14.4v-16C464,80.4,448,86.8,436,98C425.6,107.6,412.8,112.4,400,112.4z"/>
	<path style="fill:#6CC3E1;" d="M400,288.4c-12.8,0-25.6-4.8-35.2-14.4c-25.6-24-64.8-24-90.4,0c-19.2,19.2-50.4,19.2-70.4,0
		c-25.6-24-64.8-24-89.6,0c-19.2,19.2-50.4,19.2-69.6,0c-12-11.2-28-17.6-44.8-17.6v16c12.8,0,25.6,4.8,35.2,14.4
		c25.6,24,64.8,24,89.6,0c19.2-19.2,50.4-19.2,70.4,0c25.6,24,64.8,24,89.6,0c19.2-19.2,50.4-19.2,70.4,0c25.6,24,64.8,24,90.4,0
		c9.6-9.6,21.6-14.4,35.2-14.4v-16c-16.8,0-32.8,6.4-44.8,17.6C425.6,283.6,412.8,288.4,400,288.4z"/>
	<path style="fill:#6CC3E1;" d="M400,464.4c-12.8,0-25.6-4.8-35.2-14.4c-25.6-24-64.8-24-90.4,0c-19.2,19.2-50.4,19.2-70.4,0
		c-25.6-24-64.8-24-89.6,0c-19.2,19.2-50.4,19.2-69.6,0c-12-11.2-28-17.6-44.8-17.6v16c12.8,0,25.6,4.8,35.2,14.4
		c25.6,24,64.8,24,89.6,0c19.2-19.2,50.4-19.2,70.4,0c25.6,24,64.8,24,89.6,0c19.2-19.2,50.4-19.2,70.4,0c25.6,24,64.8,24,90.4,0
		c9.6-9.6,21.6-14.4,35.2-14.4v-16c-16.8,0-32.8,6.4-44.8,17.6C425.6,459.6,412.8,464.4,400,464.4z"/>
	<path style="fill:#6CC3E1;" d="M400,376.4c-12.8,0-25.6-4.8-35.2-14.4c-25.6-24-64.8-24-90.4,0c-19.2,19.2-50.4,19.2-70.4,0
		c-25.6-24-64.8-24-89.6,0c-19.2,19.2-50.4,19.2-69.6,0c-12-11.2-28-17.6-44.8-17.6v16c12.8,0,25.6,4.8,35.2,14.4
		c25.6,24,64.8,24,89.6,0c19.2-19.2,50.4-19.2,70.4,0c25.6,24,64.8,24,89.6,0c19.2-19.2,50.4-19.2,70.4,0c25.6,24,64.8,24,90.4,0
		c9.6-9.6,21.6-14.4,35.2-14.4v-16c-16.8,0-32.8,6.4-44.8,17.6C425.6,371.6,412.8,376.4,400,376.4z"/>
</g>
<g>
</g>
<g>
</g>
<g>
</g>
<g>
</g>
<g>
</g>
<g>
</g>
<g>
</g>
<g>
</g>
<g>
</g>
<g>
</g>
<g>
</g>
<g>
</g>
<g>
</g>
<g>
</g>
<g>
</g>
</svg>
