<?xml version="1.0" encoding="iso-8859-1"?>
<!-- Generator: Adobe Illustrator 19.0.0, SVG Export Plug-In . SVG Version: 6.00 Build 0)  -->
<svg version="1.1" id="Layer_1" xmlns="http://www.w3.org/2000/svg" xmlns:xlink="http://www.w3.org/1999/xlink" x="0px" y="0px"
	 viewBox="0 0 512.003 512.003" style="enable-background:new 0 0 512.003 512.003;" xml:space="preserve">
<path style="fill:#319FBC;" d="M503.322,231.338c-35.334,0-35.334-32.399-70.667-32.399s-35.334,32.399-70.667,32.399
	c-35.333,0-35.333-32.399-70.664-32.399s-35.331,32.399-70.662,32.399c-35.329,0-35.329-32.399-70.658-32.399
	c-35.33,0-35.33,32.399-70.662,32.399S44.01,198.939,8.68,198.939v81.728c35.331,0,35.331,32.399,70.662,32.399
	s35.33-32.399,70.662-32.399c35.329,0,35.329,32.399,70.658,32.399c35.331,0,35.331-32.399,70.662-32.399
	c35.333,0,35.333,32.399,70.664,32.399c35.334,0,35.334-32.399,70.667-32.399s35.334,32.399,70.667,32.399"/>
<path style="fill:#2690A8;" d="M503.322,149.609c-35.334,0-35.334-32.399-70.667-32.399s-35.334,32.399-70.667,32.399
	c-35.333,0-35.333-32.399-70.664-32.399s-35.331,32.399-70.662,32.399c-35.329,0-35.329-32.399-70.658-32.399
	c-35.33,0-35.33,32.399-70.662,32.399S44.01,117.21,8.68,117.21v81.728c35.331,0,35.331,32.399,70.662,32.399
	s35.33-32.399,70.662-32.399c35.329,0,35.329,32.399,70.658,32.399c35.331,0,35.331-32.399,70.662-32.399
	c35.333,0,35.333,32.399,70.664,32.399c35.334,0,35.334-32.399,70.667-32.399s35.334,32.399,70.667,32.399"/>
<path style="fill:#40B3DB;" d="M503.322,313.065c-35.334,0-35.334-32.399-70.667-32.399s-35.334,32.399-70.667,32.399
	c-35.333,0-35.333-32.399-70.664-32.399s-35.331,32.399-70.662,32.399c-35.329,0-35.329-32.399-70.658-32.399
	c-35.33,0-35.33,32.399-70.662,32.399S44.01,280.666,8.68,280.666v81.728c35.331,0,35.331,32.399,70.662,32.399
	s35.33-32.399,70.662-32.399c35.329,0,35.329,32.399,70.658,32.399c35.331,0,35.331-32.399,70.662-32.399
	c35.333,0,35.333,32.399,70.664,32.399c35.334,0,35.334-32.399,70.667-32.399s35.334,32.399,70.667,32.399"/>
<path d="M8.68,125.889c14.289,0,20.987,6.142,29.465,13.917c9.447,8.663,20.155,18.483,41.198,18.483
	c21.042,0,31.749-9.819,41.197-18.481c8.478-7.776,15.176-13.918,29.465-13.918c14.288,0,20.985,6.142,29.464,13.917
	c9.447,8.663,20.154,18.483,41.196,18.483s31.749-9.818,41.197-18.481c8.479-7.776,15.177-13.918,29.466-13.918
	c14.289,0,20.987,6.142,29.466,13.917c9.448,8.663,20.156,18.483,41.198,18.483s31.75-9.818,41.198-18.481
	c8.481-7.776,15.178-13.918,29.469-13.918c14.29,0,20.989,6.142,29.469,13.918c9.447,8.663,20.155,18.481,41.198,18.481
	c4.794,0,8.678-3.886,8.678-8.678c0-4.793-3.884-8.678-8.678-8.678c-14.29,0-20.989-6.142-29.469-13.918
	c-9.447-8.663-20.155-18.481-41.198-18.481c-21.043,0-31.751,9.819-41.199,18.481c-8.479,7.776-15.177,13.918-29.467,13.918
	s-20.988-6.142-29.467-13.918c-9.448-8.663-20.155-18.481-41.198-18.481s-31.75,9.819-41.198,18.483
	c-8.478,7.776-15.176,13.917-29.465,13.917c-14.288,0-20.985-6.142-29.464-13.917c-9.447-8.663-20.154-18.483-41.196-18.483
	s-31.749,9.819-41.197,18.481c-8.478,7.776-15.176,13.918-29.465,13.918s-20.987-6.142-29.466-13.918
	c-9.448-8.662-20.155-18.481-41.197-18.481c-4.794,0-8.678,3.886-8.678,8.678S3.886,125.889,8.68,125.889z"/>
<path d="M503.323,222.659c-14.29,0-20.989-6.142-29.469-13.918c-9.447-8.663-20.155-18.481-41.198-18.481
	s-31.751,9.819-41.199,18.481c-8.479,7.776-15.177,13.918-29.467,13.918s-20.988-6.142-29.468-13.918
	c-9.447-8.663-20.154-18.481-41.197-18.481s-31.75,9.819-41.198,18.483c-8.478,7.776-15.176,13.917-29.465,13.917
	c-14.288,0-20.984-6.142-29.464-13.917c-1.083-0.993-2.165-1.986-3.263-2.965c-3.578-3.19-9.064-2.873-12.253,0.704
	c-3.189,3.578-2.873,9.064,0.704,12.253c1.037,0.925,2.059,1.862,3.081,2.799c9.447,8.662,20.154,18.481,41.195,18.481
	c21.042,0,31.749-9.818,41.197-18.481c8.479-7.776,15.177-13.918,29.466-13.918s20.987,6.142,29.466,13.917
	c9.448,8.663,20.156,18.483,41.198,18.483s31.75-9.818,41.198-18.481c8.481-7.776,15.178-13.918,29.469-13.918
	c14.29,0,20.989,6.142,29.469,13.918c9.447,8.663,20.155,18.481,41.198,18.481c4.794,0,8.678-3.886,8.678-8.678
	C512.001,226.544,508.116,222.659,503.323,222.659z"/>
<path d="M8.68,207.617c14.289,0,20.987,6.142,29.465,13.917c9.447,8.663,20.155,18.483,41.198,18.483
	c21.042,0,31.749-9.819,41.197-18.481c8.478-7.776,15.176-13.918,29.465-13.918c3.118,0,5.927,0.289,8.587,0.883
	c4.674,1.044,9.317-1.899,10.362-6.577s-1.9-9.317-6.577-10.362c-3.864-0.863-8.027-1.302-12.372-1.302
	c-21.042,0-31.749,9.819-41.197,18.481c-8.478,7.776-15.176,13.918-29.465,13.918s-20.987-6.142-29.466-13.918
	c-9.447-8.663-20.155-18.481-41.197-18.481c-4.794,0-8.678,3.886-8.678,8.678S3.886,207.617,8.68,207.617z"/>
<path d="M503.323,386.115c-14.29,0-20.989-6.142-29.469-13.918c-9.447-8.663-20.155-18.481-41.198-18.481
	s-31.751,9.819-41.199,18.481c-8.479,7.776-15.177,13.918-29.467,13.918s-20.988-6.142-29.468-13.918
	c-9.447-8.663-20.154-18.481-41.197-18.481s-31.75,9.819-41.198,18.483c-8.478,7.776-15.176,13.917-29.465,13.917
	c-14.288,0-20.985-6.142-29.464-13.917c-9.447-8.663-20.153-18.483-41.196-18.483s-31.749,9.819-41.197,18.481
	c-8.478,7.776-15.176,13.918-29.465,13.918c-4.794,0-8.678,3.886-8.678,8.678s3.884,8.678,8.678,8.678
	c21.042,0,31.749-9.819,41.197-18.481c8.478-7.776,15.176-13.918,29.465-13.918c14.288,0,20.985,6.142,29.464,13.917
	c9.447,8.663,20.153,18.483,41.196,18.483s31.749-9.818,41.197-18.481c8.479-7.776,15.177-13.918,29.466-13.918
	s20.987,6.142,29.466,13.918c9.448,8.662,20.156,18.481,41.198,18.481c21.042,0,31.75-9.818,41.198-18.481
	c8.481-7.776,15.178-13.918,29.469-13.918c14.29,0,20.989,6.142,29.469,13.918c9.447,8.663,20.155,18.481,41.198,18.481
	c4.794,0,8.678-3.886,8.678-8.678S508.116,386.115,503.323,386.115z"/>
<path d="M59.028,379.917c-3.162-2.227-6.071-4.895-9.152-7.719c-9.447-8.663-20.155-18.483-41.197-18.483
	c-4.794,0-8.678,3.886-8.678,8.678c0,4.793,3.884,8.678,8.678,8.678c14.289,0,20.987,6.142,29.466,13.918
	c3.35,3.071,6.812,6.246,10.888,9.117c1.519,1.07,3.262,1.584,4.989,1.584c2.727,0,5.414-1.282,7.104-3.682
	C63.886,388.09,62.946,382.677,59.028,379.917z"/>
<path d="M503.323,304.387c-14.29,0-20.989-6.142-29.469-13.918c-9.447-8.663-20.155-18.481-41.198-18.481
	c-21.042,0-31.749,9.818-41.198,18.48c-3.533,3.239-3.771,8.728-0.531,12.262c3.238,3.533,8.727,3.77,12.262,0.531
	c8.479-7.775,15.178-13.917,29.467-13.917c14.29,0,20.989,6.142,29.469,13.918c9.447,8.663,20.155,18.481,41.198,18.481
	c4.794,0,8.678-3.886,8.678-8.678C512.001,308.272,508.116,304.387,503.323,304.387z"/>
<path d="M8.68,289.344c14.289,0,20.987,6.142,29.465,13.917c9.447,8.663,20.155,18.483,41.198,18.483
	c21.042,0,31.749-9.819,41.197-18.481c8.478-7.776,15.176-13.918,29.465-13.918c14.288,0,20.985,6.142,29.464,13.918
	c9.447,8.662,20.154,18.481,41.196,18.481s31.749-9.818,41.197-18.481c8.479-7.776,15.177-13.918,29.466-13.918
	c14.289,0,20.987,6.142,29.466,13.918c9.448,8.662,20.156,18.481,41.198,18.481c4.913,0,9.587-0.56,13.89-1.664
	c4.642-1.192,7.439-5.922,6.247-10.563c-1.191-4.642-5.915-7.439-10.564-6.248c-2.934,0.753-6.066,1.12-9.573,1.12
	c-14.29,0-20.988-6.142-29.468-13.918c-9.447-8.663-20.154-18.481-41.197-18.481s-31.75,9.819-41.198,18.483
	c-8.478,7.776-15.176,13.917-29.465,13.917c-14.288,0-20.985-6.142-29.464-13.918c-9.447-8.662-20.153-18.481-41.196-18.481
	s-31.749,9.819-41.197,18.481c-8.478,7.776-15.176,13.918-29.465,13.918s-20.987-6.142-29.466-13.918
	c-9.447-8.663-20.155-18.481-41.197-18.481c-4.794,0-8.678,3.886-8.678,8.678S3.886,289.344,8.68,289.344z"/>
<g>
</g>
<g>
</g>
<g>
</g>
<g>
</g>
<g>
</g>
<g>
</g>
<g>
</g>
<g>
</g>
<g>
</g>
<g>
</g>
<g>
</g>
<g>
</g>
<g>
</g>
<g>
</g>
<g>
</g>
</svg>
